<svg xmlns="http://www.w3.org/2000/svg" xmlns:xlink="http://www.w3.org/1999/xlink" width="150" height="50" viewBox="0 0 150 50">
  <defs>
    <style>
      .cls-1 {
        fill: #fff;
      }

      .cls-2 {
        clip-path: url(#clip-path);
      }

      .cls-3 {
        fill: #00447c;
      }

      .cls-4 {
        fill: #7296c8;
      }

      .cls-5 {
        fill: #faba00;
      }
    </style>
    <clipPath id="clip-path">
      <rect id="Rechteck_2" data-name="Rechteck 2" class="cls-1" width="150" height="50" transform="translate(738 839)"/>
    </clipPath>
  </defs>
  <g id="ISERV" class="cls-2" transform="translate(-738 -839)">
    <g id="Ebene_2" data-name="Ebene 2" transform="translate(743.375 839)">
      <g id="Ebene_1" data-name="Ebene 1">
        <path id="Pfad_3" data-name="Pfad 3" class="cls-3" d="M.656,35.752a.651.651,0,0,1-.65-.651V.651A.651.651,0,0,1,.656,0h.35A6.129,6.129,0,0,1,7.129,6.123V35.1a.652.652,0,0,1-.651.651Z"/>
        <path id="Pfad_4" data-name="Pfad 4" class="cls-3" d="M27.418,35.743c-6.356.005-13.334-3.3-13.631-10.558a.662.662,0,0,1,.655-.678l5.591,0a.644.644,0,0,1,.63.592c.248,2.514,3.015,4.195,6.886,4.191,3.917,0,6.35-1.654,6.35-4.3-.031-3.169-3.572-3.937-7.681-4.824-5.58-1.207-11.9-2.574-11.906-10.281C14.307,4.16,19.719.007,27.18,0c7.5-.007,12.5,3.923,12.74,10.01a.662.662,0,0,1-.654.679l-5.592,0a.645.645,0,0,1-.632-.589c-.244-2.19-2.709-3.718-5.993-3.716s-5.6,1.632-5.6,3.962c0,2.691,3.337,3.415,7.2,4.253,5.461,1.185,12.257,2.663,12.385,10.507A9.33,9.33,0,0,1,38.4,32.041C36.046,34.425,32.145,35.739,27.418,35.743Z"/>
        <path id="Pfad_5" data-name="Pfad 5" class="cls-3" d="M62.247,35.752c-9.644,0-17.2-7.822-17.2-17.807C45.048,8.05,52.677,0,62.049,0A17.263,17.263,0,0,1,79.314,17.253a22.75,22.75,0,0,1-.15,2.737.647.647,0,0,1-.643.568H52.7a.215.215,0,0,0-.161.078.232.232,0,0,0-.056.185,9.3,9.3,0,0,0,9.565,7.994A10.136,10.136,0,0,0,69.7,25.59a.6.6,0,0,1,.444-.2L77,25.453a.645.645,0,0,1,.552.324.662.662,0,0,1,.018.654A17.418,17.418,0,0,1,62.247,35.752Zm0-28.814a9.958,9.958,0,0,0-9.674,7.417.23.23,0,0,0,.036.2.215.215,0,0,0,.173.091h18.8a.21.21,0,0,0,.172-.092.222.222,0,0,0,.036-.2,10.157,10.157,0,0,0-9.54-7.417Z"/>
        <path id="Pfad_6" data-name="Pfad 6" class="cls-3" d="M84.734,35.752a1.091,1.091,0,0,1-1.09-1.089V19.725C83.644,5.47,92.508.189,100.808,0a.662.662,0,0,1,.666.656V6.284a.638.638,0,0,1-.636.638c-6.239,0-10,4.787-10.073,12.805V34.663a1.091,1.091,0,0,1-1.09,1.09Z"/>
        <path id="Pfad_7" data-name="Pfad 7" class="cls-3" d="M119.114,35.752a.67.67,0,0,1-.622-.419L105.1.919A.671.671,0,0,1,105.726,0h6.051a.669.669,0,0,1,.623.424l9.536,25.3a.236.236,0,0,0,.438,0L131.9.425A.671.671,0,0,1,132.529,0h6.051a.669.669,0,0,1,.62.922L125.813,35.331a.667.667,0,0,1-.622.421Z"/>
        <path id="Pfad_8" data-name="Pfad 8" class="cls-3" d="M53.506,50a3.562,3.562,0,1,1,0-7.124h82.182a3.562,3.562,0,1,1,0,7.124Z"/>
        <path id="Pfad_9" data-name="Pfad 9" class="cls-3" d="M36.883,50a3.562,3.562,0,1,1,3.534-3.562A3.5,3.5,0,0,1,36.883,50Z"/>
        <path id="Pfad_10" data-name="Pfad 10" class="cls-4" d="M20.237,50a3.562,3.562,0,1,1,3.533-3.562A3.5,3.5,0,0,1,20.237,50Z"/>
        <path id="Pfad_11" data-name="Pfad 11" class="cls-5" d="M3.592,50a3.562,3.562,0,1,1,0-7.124,3.562,3.562,0,0,1,0,7.124Z"/>
      </g>
    </g>
  </g>
</svg>
